{
    "asset" : {
        "generator" : "Khronos glTF Blender I/O v1.8.19",
        "version" : "2.0"
    },
    "scene" : 0,
    "scenes" : [
        {
            "name" : "Scene",
            "nodes" : [
                0
            ]
        }
    ],
    "nodes" : [
        {
            "mesh" : 0,
            "name" : "Weapon1.001",
            "translation" : [
                -3.1553878784179688,
                2.0126724243164062,
                2.0131149291992188
            ]
        }
    ],
    "materials" : [
        {
            "name" : "Material.008",
            "pbrMetallicRoughness" : {
                "baseColorFactor" : [
                    0.3640593886375427,
                    0.6519765853881836,
                    0.6519765853881836,
                    1
                ],
                "metallicFactor" : 0.27586206793785095,
                "roughnessFactor" : 0.32758620381355286
            }
        },
        {
            "doubleSided" : true,
            "name" : "Material.015",
            "pbrMetallicRoughness" : {
                "baseColorFactor" : [
                    0.13563336431980133,
                    0.11953844130039215,
                    0.11697071045637131,
                    1
                ],
                "metallicFactor" : 0
            }
        },
        {
            "name" : "Material.010",
            "pbrMetallicRoughness" : {
                "baseColorFactor" : [
                    0.5277166962623596,
                    0.5205912590026855,
                    0.25166556239128113,
                    1
                ],
                "metallicFactor" : 0.4482758641242981,
                "roughnessFactor" : 0.5
            }
        },
        {
            "doubleSided" : true,
            "name" : "Material.013",
            "pbrMetallicRoughness" : {
                "baseColorFactor" : [
                    0.051690828055143356,
                    0.051690828055143356,
                    0.051690828055143356,
                    1
                ],
                "metallicFactor" : 0,
                "roughnessFactor" : 0.5
            }
        },
        {
            "name" : "Material.014",
            "pbrMetallicRoughness" : {
                "baseColorFactor" : [
                    0.17909342050552368,
                    0.17909342050552368,
                    0.17909342050552368,
                    1
                ],
                "metallicFactor" : 0,
                "roughnessFactor" : 0.5
            }
        }
    ],
    "meshes" : [
        {
            "name" : "Cube.001",
            "primitives" : [
                {
                    "attributes" : {
                        "POSITION" : 0,
                        "NORMAL" : 1,
                        "TEXCOORD_0" : 2
                    },
                    "indices" : 3,
                    "material" : 0
                },
                {
                    "attributes" : {
                        "POSITION" : 4,
                        "NORMAL" : 5,
                        "TEXCOORD_0" : 6
                    },
                    "indices" : 7,
                    "material" : 1
                },
                {
                    "attributes" : {
                        "POSITION" : 8,
                        "NORMAL" : 9,
                        "TEXCOORD_0" : 10
                    },
                    "indices" : 11,
                    "material" : 2
                },
                {
                    "attributes" : {
                        "POSITION" : 12,
                        "NORMAL" : 13,
                        "TEXCOORD_0" : 14
                    },
                    "indices" : 15,
                    "material" : 3
                },
                {
                    "attributes" : {
                        "POSITION" : 16,
                        "NORMAL" : 17,
                        "TEXCOORD_0" : 18
                    },
                    "indices" : 19,
                    "material" : 4
                }
            ]
        }
    ],
    "accessors" : [
        {
            "bufferView" : 0,
            "componentType" : 5126,
            "count" : 94,
            "max" : [
                0.7632585167884827,
                0.3954564034938812,
                0.041757166385650635
            ],
            "min" : [
                -0.7632585763931274,
                0.12901461124420166,
                -0.03927074000239372
            ],
            "type" : "VEC3"
        },
        {
            "bufferView" : 1,
            "componentType" : 5126,
            "count" : 94,
            "type" : "VEC3"
        },
        {
            "bufferView" : 2,
            "componentType" : 5126,
            "count" : 94,
            "type" : "VEC2"
        },
        {
            "bufferView" : 3,
            "componentType" : 5123,
            "count" : 234,
            "type" : "SCALAR"
        },
        {
            "bufferView" : 4,
            "componentType" : 5126,
            "count" : 683,
            "max" : [
                0.7428383231163025,
                0.3954564034938812,
                0.041757166385650635
            ],
            "min" : [
                -0.7428383827209473,
                -0.4973859190940857,
                -0.03927074000239372
            ],
            "type" : "VEC3"
        },
        {
            "bufferView" : 5,
            "componentType" : 5126,
            "count" : 683,
            "type" : "VEC3"
        },
        {
            "bufferView" : 6,
            "componentType" : 5126,
            "count" : 683,
            "type" : "VEC2"
        },
        {
            "bufferView" : 7,
            "componentType" : 5123,
            "count" : 1887,
            "type" : "SCALAR"
        },
        {
            "bufferView" : 8,
            "componentType" : 5126,
            "count" : 12288,
            "max" : [
                0.427448570728302,
                -0.07539962977170944,
                0.07066050916910172
            ],
            "min" : [
                -0.42744818329811096,
                -0.3327958583831787,
                -0.06452362984418869
            ],
            "type" : "VEC3"
        },
        {
            "bufferView" : 9,
            "componentType" : 5126,
            "count" : 12288,
            "type" : "VEC3"
        },
        {
            "bufferView" : 10,
            "componentType" : 5126,
            "count" : 12288,
            "type" : "VEC2"
        },
        {
            "bufferView" : 11,
            "componentType" : 5123,
            "count" : 73728,
            "type" : "SCALAR"
        },
        {
            "bufferView" : 12,
            "componentType" : 5126,
            "count" : 160,
            "max" : [
                0.09259994328022003,
                -0.24305064976215363,
                0.09150837361812592
            ],
            "min" : [
                -0.09178097546100616,
                -1.2214213609695435,
                -0.07509363442659378
            ],
            "type" : "VEC3"
        },
        {
            "bufferView" : 13,
            "componentType" : 5126,
            "count" : 160,
            "type" : "VEC3"
        },
        {
            "bufferView" : 14,
            "componentType" : 5126,
            "count" : 160,
            "type" : "VEC2"
        },
        {
            "bufferView" : 15,
            "componentType" : 5123,
            "count" : 276,
            "type" : "SCALAR"
        },
        {
            "bufferView" : 16,
            "componentType" : 5126,
            "count" : 1220,
            "max" : [
                0.2227020263671875,
                0.03093056194484234,
                0.05229341983795166
            ],
            "min" : [
                -0.22830474376678467,
                -4.413515090942383,
                -0.03936798870563507
            ],
            "type" : "VEC3"
        },
        {
            "bufferView" : 17,
            "componentType" : 5126,
            "count" : 1220,
            "type" : "VEC3"
        },
        {
            "bufferView" : 18,
            "componentType" : 5126,
            "count" : 1220,
            "type" : "VEC2"
        },
        {
            "bufferView" : 19,
            "componentType" : 5123,
            "count" : 7248,
            "type" : "SCALAR"
        }
    ],
    "bufferViews" : [
        {
            "buffer" : 0,
            "byteLength" : 1128,
            "byteOffset" : 0
        },
        {
            "buffer" : 0,
            "byteLength" : 1128,
            "byteOffset" : 1128
        },
        {
            "buffer" : 0,
            "byteLength" : 752,
            "byteOffset" : 2256
        },
        {
            "buffer" : 0,
            "byteLength" : 468,
            "byteOffset" : 3008
        },
        {
            "buffer" : 0,
            "byteLength" : 8196,
            "byteOffset" : 3476
        },
        {
            "buffer" : 0,
            "byteLength" : 8196,
            "byteOffset" : 11672
        },
        {
            "buffer" : 0,
            "byteLength" : 5464,
            "byteOffset" : 19868
        },
        {
            "buffer" : 0,
            "byteLength" : 3774,
            "byteOffset" : 25332
        },
        {
            "buffer" : 0,
            "byteLength" : 147456,
            "byteOffset" : 29108
        },
        {
            "buffer" : 0,
            "byteLength" : 147456,
            "byteOffset" : 176564
        },
        {
            "buffer" : 0,
            "byteLength" : 98304,
            "byteOffset" : 324020
        },
        {
            "buffer" : 0,
            "byteLength" : 147456,
            "byteOffset" : 422324
        },
        {
            "buffer" : 0,
            "byteLength" : 1920,
            "byteOffset" : 569780
        },
        {
            "buffer" : 0,
            "byteLength" : 1920,
            "byteOffset" : 571700
        },
        {
            "buffer" : 0,
            "byteLength" : 1280,
            "byteOffset" : 573620
        },
        {
            "buffer" : 0,
            "byteLength" : 552,
            "byteOffset" : 574900
        },
        {
            "buffer" : 0,
            "byteLength" : 14640,
            "byteOffset" : 575452
        },
        {
            "buffer" : 0,
            "byteLength" : 14640,
            "byteOffset" : 590092
        },
        {
            "buffer" : 0,
            "byteLength" : 9760,
            "byteOffset" : 604732
        },
        {
            "buffer" : 0,
            "byteLength" : 14496,
            "byteOffset" : 614492
        }
    ],
    "buffers" : [
        {
            "byteLength" : 628988,
            "uri" : "weapon.bin"
        }
    ]
}
