<?xml version="1.0" encoding="UTF-8" standalone="no"?>
<!-- Created with Inkscape (http://www.inkscape.org/) -->

<svg
   width="360mm"
   height="210mm"
   viewBox="0 0 360 210"
   version="1.1"
   id="svg5"
   inkscape:version="1.2.1 (9c6d41e410, 2022-07-14)"
   sodipodi:docname="gs-logo.svg"
   xmlns:inkscape="http://www.inkscape.org/namespaces/inkscape"
   xmlns:sodipodi="http://sodipodi.sourceforge.net/DTD/sodipodi-0.dtd"
   xmlns="http://www.w3.org/2000/svg"
   xmlns:svg="http://www.w3.org/2000/svg">
  <sodipodi:namedview
     id="namedview7"
     pagecolor="#ffffff"
     bordercolor="#000000"
     borderopacity="0.25"
     inkscape:showpageshadow="2"
     inkscape:pageopacity="0.0"
     inkscape:pagecheckerboard="0"
     inkscape:deskcolor="#d1d1d1"
     inkscape:document-units="mm"
     showgrid="false"
     inkscape:zoom="0.26551473"
     inkscape:cx="3.7662694"
     inkscape:cy="-237.27497"
     inkscape:window-width="1920"
     inkscape:window-height="1012"
     inkscape:window-x="0"
     inkscape:window-y="31"
     inkscape:window-maximized="1"
     inkscape:current-layer="layer1" />
  <defs
     id="defs2" />
  <g
     inkscape:label="Layer 1"
     inkscape:groupmode="layer"
     id="layer1">
    <path
       style="fill:#6be564;fill-opacity:1;stroke:#010100;stroke-width:0.025;stroke-opacity:0.494552;paint-order:fill markers stroke"
       d="m 21.957323,84.539891 0.21891,52.098309 35.46188,-0.65669 v -23.86015 l -16.41753,-0.2189 v 9.41271 h 3.2835 v 3.94022 l -8.75601,-0.21891 -0.87562,-28.457062 h 7.00482 l 0.43779,3.940212 14.44744,0.65671 -0.65669,-18.387649 z"
       id="path236" />
    <path
       id="path238"
       style="fill:#505050;stroke:#010100;stroke-width:0.025;stroke-opacity:0.494552;paint-order:fill markers stroke"
       d="m 90.204623,80.925021 -28.78584,1.09451 v 53.849429 l 10.28877,-0.4377 -0.10955,-17.51211 10.83551,16.19849 10.50737,0.65681 -14.55725,-27.25312 11.93002,-0.76636 z m -5.70922,7.19491 0.4377,12.149129 -13.35267,1.42317 0.8754,-12.805939 z" />
    <path
       style="fill:#505050;stroke:#010100;stroke-width:0.025;stroke-opacity:0.494552;paint-order:fill markers stroke"
       d="m 99.726593,81.287491 -0.21891,54.506219 H 111.3283 l -0.43779,-54.287319 z"
       id="path240"
       sodipodi:nodetypes="ccccc" />
    <path
       style="fill:#505050;stroke:#010100;stroke-width:0.025;stroke-opacity:0.494552;paint-order:fill markers stroke"
       d="m 115.57807,81.778431 0.43778,53.849499 7.88043,-0.8756 v -26.70585 l 14.66632,-3.2835 -0.32833,-7.333175 -14.22854,1.970106 0.10946,-9.95997 13.57182,-1.5323 -10e-6,-7.22372 z"
       id="path242"
       sodipodi:nodetypes="ccccccccccc" />
    <path
       style="fill:#505050;stroke:#010100;stroke-width:0.025;stroke-opacity:0.494552;paint-order:fill markers stroke"
       d="m 143.41598,134.53339 0.54727,-53.958949 20.79554,-0.76615 -0.10945,6.67647 -13.02457,1.64175 0.43778,9.522169 11.93008,-0.875612 1e-5,6.567022 -11.93008,1.64175 1e-5,28.56649 z"
       id="path244"
       sodipodi:nodetypes="ccccccccccc" />
    <path
       style="fill:#505050;stroke:#010100;stroke-width:0.025;stroke-opacity:0.494552;paint-order:fill markers stroke"
       d="m 198.5789,89.765051 -0.87558,-9.19382 -26.37751,-0.54725 -0.10946,32.178379 19.48215,-0.54726 0.32834,11.27337 -19.70104,0.32836 0.32835,9.74108 28.23817,-0.21892 -1.20396,-30.20826 h -17.73094 l -0.21888,-12.915139 z"
       id="path246"
       sodipodi:nodetypes="ccccccccccccc" />
    <path
       id="path248"
       style="fill:#ff5d5d;fill-opacity:1;stroke:#010100;stroke-width:0.0255798;stroke-opacity:0.494552;paint-order:fill markers stroke"
       d="m 245.54938,78.577151 -31.08343,2.0629 -5.91014,52.939179 41.59064,0.22939 z m -7.36792,15.015969 2.62668,28.53221 -21.67071,0.1147 2.07943,-27.271646 z" />
    <path
       id="path250"
       style="fill:#505050;stroke:#010100;stroke-width:0.0256331;stroke-opacity:0.494552;paint-order:fill markers stroke"
       d="m 286.59325,77.173511 -25.61084,3.68195 -1.53221,52.700139 13.79038,0.6904 2.18901,-18.64072 9.41235,16.10961 9.63145,0.22996 -17.94929,-31.29783 12.69586,0.92036 z m -5.2958,5.86786 3.28352,11.711433 -15.5422,0.656291 -0.21859,-10.725964 z" />
    <path
       style="fill:#505050;stroke:#010100;stroke-width:0.025;stroke-opacity:0.494552;paint-order:fill markers stroke"
       d="m 321.25809,131.86967 -0.65672,-40.934379 -18.82545,4.378 v -9.4127 l 42.6856,-9.85053 -0.65672,10.06941 -14.22853,2.6268 -1.09447,42.904499 z"
       id="path252" />
    <path
       style="fill:#505050;stroke:#010100;stroke-width:0.025;stroke-opacity:0.494552;paint-order:fill markers stroke"
       d="m -255.82554,22.465026 v -44.57838 h 28.48061 v 14.2403301 h -8.20365 v -4.4888001 h -10.37066 v 26.15883 h 11.45416 V 7.9151461 h -4.95315 v -3.25051 h 12.22809 V 22.619806 Z"
       id="path458" />
    <path
       style="fill:#505050;stroke:#010100;stroke-width:0.025;stroke-opacity:0.494552;paint-order:fill markers stroke"
       d="m -220.53434,-22.113354 v 44.88795 h 6.50101 v -12.38288 l 12.07331,12.07331 h 6.50101 L -213.87854,4.0454861 h 17.33604 V -23.351634 h -23.99184 z"
       id="path460" />
    <text
       xml:space="preserve"
       style="font-size:25.38px;fill:#505050;fill-opacity:1;stroke:#010100;stroke-width:0.2;stroke-dasharray:none;stroke-opacity:0.494552;paint-order:fill markers stroke"
       x="-256.10046"
       y="91.152878"
       id="text1133"><tspan
         sodipodi:role="line"
         id="tspan1131"
         style="stroke-width:0.2;stroke-dasharray:none"
         x="-256.10046"
         y="91.152878">GRIFFSORT</tspan></text>
    <path
       style="fill:#b5f2b6;fill-opacity:1;stroke:none;stroke-width:0.202645;stroke-dasharray:none;stroke-opacity:0.494552;paint-order:fill markers stroke"
       d="m -101.23691,19.27039 v 53.710757 h 38.077347 V 51.999002 h -13.930725 v 7.157177 h 2.321785 V 61.34233 H -86.180272 V 36.323344 h 9.301104 v 7.911504 h 13.647715 V 19.27039 Z"
       id="path1135-7"
       sodipodi:nodetypes="ccccccccccccccc" />
    <path
       style="fill:#505050;fill-opacity:1;stroke:#010100;stroke-width:0.2;stroke-dasharray:none;stroke-opacity:0.494552;paint-order:fill markers stroke"
       d="m -99.665695,18.379233 v 52.317676 h 38.077354 V 50.258975 h -13.930728 v 6.971544 h 2.321785 v 2.12945 H -84.609053 V 34.989891 h 9.301104 v 7.706306 h 13.647712 V 18.379233 Z"
       id="path1135"
       sodipodi:nodetypes="ccccccccccccccc" />
  </g>
</svg>
