{
    "asset" : {
        "generator" : "Khronos glTF Blender I/O v1.8.19",
        "version" : "2.0"
    },
    "scene" : 0,
    "scenes" : [
        {
            "name" : "Scene",
            "nodes" : [
                0
            ]
        }
    ],
    "nodes" : [
        {
            "mesh" : 0,
            "name" : "Weapon1.001",
            "translation" : [
                -3.155212163925171,
                1.0262184143066406,
                2.0174763202667236
            ]
        }
    ],
    "materials" : [
        {
            "name" : "Material.008",
            "pbrMetallicRoughness" : {
                "baseColorFactor" : [
                    0.3640593886375427,
                    0.6519765853881836,
                    0.6519765853881836,
                    1
                ],
                "metallicFactor" : 0.27586206793785095,
                "roughnessFactor" : 0.32758620381355286
            }
        },
        {
            "doubleSided" : true,
            "name" : "Material.015",
            "pbrMetallicRoughness" : {
                "baseColorFactor" : [
                    0.13563336431980133,
                    0.11953844130039215,
                    0.11697071045637131,
                    1
                ],
                "metallicFactor" : 0
            }
        },
        {
            "name" : "Material.010",
            "pbrMetallicRoughness" : {
                "baseColorFactor" : [
                    0.5277166962623596,
                    0.5205912590026855,
                    0.25166556239128113,
                    1
                ],
                "metallicFactor" : 0.4482758641242981,
                "roughnessFactor" : 0.5
            }
        },
        {
            "doubleSided" : true,
            "name" : "Material.013",
            "pbrMetallicRoughness" : {
                "baseColorFactor" : [
                    0.051690828055143356,
                    0.051690828055143356,
                    0.051690828055143356,
                    1
                ],
                "metallicFactor" : 0,
                "roughnessFactor" : 0.5
            }
        },
        {
            "name" : "Material.014",
            "pbrMetallicRoughness" : {
                "baseColorFactor" : [
                    0.17909342050552368,
                    0.17909342050552368,
                    0.17909342050552368,
                    1
                ],
                "metallicFactor" : 0,
                "roughnessFactor" : 0.5
            }
        }
    ],
    "meshes" : [
        {
            "name" : "Cube.001",
            "primitives" : [
                {
                    "attributes" : {
                        "POSITION" : 0,
                        "NORMAL" : 1,
                        "TEXCOORD_0" : 2
                    },
                    "indices" : 3,
                    "material" : 0
                },
                {
                    "attributes" : {
                        "POSITION" : 4,
                        "NORMAL" : 5,
                        "TEXCOORD_0" : 6
                    },
                    "indices" : 7,
                    "material" : 1
                },
                {
                    "attributes" : {
                        "POSITION" : 8,
                        "NORMAL" : 9,
                        "TEXCOORD_0" : 10
                    },
                    "indices" : 11,
                    "material" : 2
                },
                {
                    "attributes" : {
                        "POSITION" : 12,
                        "NORMAL" : 13,
                        "TEXCOORD_0" : 14
                    },
                    "indices" : 15,
                    "material" : 3
                },
                {
                    "attributes" : {
                        "POSITION" : 16,
                        "NORMAL" : 17,
                        "TEXCOORD_0" : 18
                    },
                    "indices" : 19,
                    "material" : 4
                }
            ]
        }
    ],
    "accessors" : [
        {
            "bufferView" : 0,
            "componentType" : 5126,
            "count" : 94,
            "max" : [
                0.76308274269104,
                1.3819103240966797,
                0.03739585354924202
            ],
            "min" : [
                -0.7634343504905701,
                1.1154685020446777,
                -0.04363205283880234
            ],
            "type" : "VEC3"
        },
        {
            "bufferView" : 1,
            "componentType" : 5126,
            "count" : 94,
            "type" : "VEC3"
        },
        {
            "bufferView" : 2,
            "componentType" : 5126,
            "count" : 94,
            "type" : "VEC2"
        },
        {
            "bufferView" : 3,
            "componentType" : 5123,
            "count" : 234,
            "type" : "SCALAR"
        },
        {
            "bufferView" : 4,
            "componentType" : 5126,
            "count" : 683,
            "max" : [
                0.7426625490188599,
                1.3819103240966797,
                0.03739585354924202
            ],
            "min" : [
                -0.7430141568183899,
                0.48906803131103516,
                -0.04363205283880234
            ],
            "type" : "VEC3"
        },
        {
            "bufferView" : 5,
            "componentType" : 5126,
            "count" : 683,
            "type" : "VEC3"
        },
        {
            "bufferView" : 6,
            "componentType" : 5126,
            "count" : 683,
            "type" : "VEC2"
        },
        {
            "bufferView" : 7,
            "componentType" : 5123,
            "count" : 1887,
            "type" : "SCALAR"
        },
        {
            "bufferView" : 8,
            "componentType" : 5126,
            "count" : 12288,
            "max" : [
                0.42727282643318176,
                0.9110543131828308,
                0.0662991926074028
            ],
            "min" : [
                -0.4276239275932312,
                0.6536580920219421,
                -0.0688849464058876
            ],
            "type" : "VEC3"
        },
        {
            "bufferView" : 9,
            "componentType" : 5126,
            "count" : 12288,
            "type" : "VEC3"
        },
        {
            "bufferView" : 10,
            "componentType" : 5126,
            "count" : 12288,
            "type" : "VEC2"
        },
        {
            "bufferView" : 11,
            "componentType" : 5123,
            "count" : 73728,
            "type" : "SCALAR"
        },
        {
            "bufferView" : 12,
            "componentType" : 5126,
            "count" : 160,
            "max" : [
                0.09242419898509979,
                0.7434033155441284,
                0.087147057056427
            ],
            "min" : [
                -0.0919567197561264,
                -0.2349674105644226,
                -0.0794549509882927
            ],
            "type" : "VEC3"
        },
        {
            "bufferView" : 13,
            "componentType" : 5126,
            "count" : 160,
            "type" : "VEC3"
        },
        {
            "bufferView" : 14,
            "componentType" : 5126,
            "count" : 160,
            "type" : "VEC2"
        },
        {
            "bufferView" : 15,
            "componentType" : 5123,
            "count" : 276,
            "type" : "SCALAR"
        },
        {
            "bufferView" : 16,
            "componentType" : 5126,
            "count" : 1220,
            "max" : [
                0.22252628207206726,
                1.0173845291137695,
                0.047932107001543045
            ],
            "min" : [
                -0.2284804880619049,
                -3.427061080932617,
                -0.043729301542043686
            ],
            "type" : "VEC3"
        },
        {
            "bufferView" : 17,
            "componentType" : 5126,
            "count" : 1220,
            "type" : "VEC3"
        },
        {
            "bufferView" : 18,
            "componentType" : 5126,
            "count" : 1220,
            "type" : "VEC2"
        },
        {
            "bufferView" : 19,
            "componentType" : 5123,
            "count" : 7248,
            "type" : "SCALAR"
        }
    ],
    "bufferViews" : [
        {
            "buffer" : 0,
            "byteLength" : 1128,
            "byteOffset" : 0
        },
        {
            "buffer" : 0,
            "byteLength" : 1128,
            "byteOffset" : 1128
        },
        {
            "buffer" : 0,
            "byteLength" : 752,
            "byteOffset" : 2256
        },
        {
            "buffer" : 0,
            "byteLength" : 468,
            "byteOffset" : 3008
        },
        {
            "buffer" : 0,
            "byteLength" : 8196,
            "byteOffset" : 3476
        },
        {
            "buffer" : 0,
            "byteLength" : 8196,
            "byteOffset" : 11672
        },
        {
            "buffer" : 0,
            "byteLength" : 5464,
            "byteOffset" : 19868
        },
        {
            "buffer" : 0,
            "byteLength" : 3774,
            "byteOffset" : 25332
        },
        {
            "buffer" : 0,
            "byteLength" : 147456,
            "byteOffset" : 29108
        },
        {
            "buffer" : 0,
            "byteLength" : 147456,
            "byteOffset" : 176564
        },
        {
            "buffer" : 0,
            "byteLength" : 98304,
            "byteOffset" : 324020
        },
        {
            "buffer" : 0,
            "byteLength" : 147456,
            "byteOffset" : 422324
        },
        {
            "buffer" : 0,
            "byteLength" : 1920,
            "byteOffset" : 569780
        },
        {
            "buffer" : 0,
            "byteLength" : 1920,
            "byteOffset" : 571700
        },
        {
            "buffer" : 0,
            "byteLength" : 1280,
            "byteOffset" : 573620
        },
        {
            "buffer" : 0,
            "byteLength" : 552,
            "byteOffset" : 574900
        },
        {
            "buffer" : 0,
            "byteLength" : 14640,
            "byteOffset" : 575452
        },
        {
            "buffer" : 0,
            "byteLength" : 14640,
            "byteOffset" : 590092
        },
        {
            "buffer" : 0,
            "byteLength" : 9760,
            "byteOffset" : 604732
        },
        {
            "buffer" : 0,
            "byteLength" : 14496,
            "byteOffset" : 614492
        }
    ],
    "buffers" : [
        {
            "byteLength" : 628988,
            "uri" : "weapon_f.bin"
        }
    ]
}
